#!OML:ASF F:\VICON\USERDATA\INSTALL\rory3\rory3.ASF
:FULLY-SPECIFIED
:DEGREES
1
root -0.515004 18.3415 49.3242 177.269 1.18871 -179.17
lowerback 16.4116 -1.42641 -4.37214
upperback 0.231525 -2.00653 4.75037
thorax -8.65127 -0.55006 8.15497
lowerneck -4.85295 -3.24833 -3.17745
upperneck 36.0401 3.28534 -6.56624
head 13.0027 1.98744 -1.21155
rclavicle 3.35946e-014 -5.56597e-015
rhumerus -32.3355 -66.1765 -16.8223
rradius 66.4057
rwrist -69.584
rhand -14.0774 -9.07263
rfingers 7.12502
rthumb 12.0545 -38.7054
lclavicle 3.35946e-014 -5.56597e-015
lhumerus -48.2587 5.9933 78.3634
lradius 48.919
lwrist 8.58528
lhand -8.5321 52.8626
lfingers 7.12502
lthumb 17.3968 82.1041
rfemur -7.25072 3.8629 22.6064
rtibia 32.3128
rfoot -18.613 -15.3065
rtoes 11.2708
lfemur -4.64151 -11.5743 -19.0365
ltibia 25.9256
lfoot -14.9513 3.73728
ltoes -6.15023
2
root -0.508083 18.3391 49.3116 177.286 1.09107 -179.222
lowerback 16.1564 -1.69298 -4.69563
upperback -0.0584675 -2.41177 4.93567
thorax -8.73679 -0.721573 8.64375
lowerneck -3.17439 -3.0515 -3.71949
upperneck 35.4886 3.63834 -6.59797
head 12.4283 2.16585 -1.08277
rclavicle 1.53064e-014 1.19271e-014
rhumerus -31.2336 -65.2384 -17.7433
rradius 66.5467
rwrist -68.9046
rhand -13.5614 -9.17799
rfingers 7.12502
rthumb 12.552 -38.7809
lclavicle 1.53064e-014 1.19271e-014
lhumerus -49.4379 6.5755 78.2029
lradius 49.3304
lwrist 8.75766
lhand -8.44939 53.4856
lfingers 7.12502
lthumb 17.4764 82.72
rfemur -7.24612 3.59364 22.5498
rtibia 32.3351
rfoot -18.6161 -15.2401
rtoes 11.0825
lfemur -4.69864 -11.5564 -19.0637
ltibia 26.0637
lfoot -15.0472 3.63318
ltoes -6.29497
3
root -0.502204 18.3343 49.2988 177.291 0.946005 -179.227
lowerback 16.7174 -1.66895 -4.74675
upperback -0.342888 -2.40099 4.99948
thorax -9.36664 -0.67296 8.80073
lowerneck -3.32396 -3.12666 -3.726
upperneck 35.7833 3.66145 -6.65753
head 12.5914 2.18113 -1.09871
rclavicle 3.77691e-014 -2.06736e-014
rhumerus -31.8992 -64.7796 -16.8772
rradius 66.7821
rwrist -68.3988
rhand -13.0599 -9.0837
rfingers 7.12502
rthumb 13.0355 -38.6564
lclavicle 3.77691e-014 -2.06736e-014
lhumerus -49.8222 6.43274 78.3344
lradius 49.4824
lwrist 8.72057
lhand -8.61518 54.0446
lfingers 7.12502
lthumb 17.3168 83.2932
rfemur -7.25122 3.34443 22.5524
rtibia 32.4393
rfoot -18.7954 -15.2388
rtoes 11.3197
lfemur -4.69805 -11.5832 -19.064
ltibia 26.0976
lfoot -15.0538 3.66441
ltoes -7.43939
4
root -0.489367 18.3265 49.2855 177.296 0.864129 -179.266
lowerback 16.4175 -1.73655 -4.69194
upperback -0.197152 -2.48734 4.88644
thorax -9.02625 -0.744004 8.6298
lowerneck -3.21745 -3.08808 -3.60918
upperneck 35.5783 3.5959 -6.60887
head 12.4739 2.16222 -1.11064
rclavicle 1.94809e-014 -4.77083e-014
rhumerus -32.2409 -64.8936 -16.7248
rradius 67.086
rwrist -67.9727
rhand -12.6678 -9.26842
rfingers 7.12502
rthumb 13.4134 -38.8166
lclavicle 1.94809e-014 -4.77083e-014
lhumerus -49.5286 6.40582 78.1256
lradius 49.3486
lwrist 8.57662
lhand -8.48742 54.2574
lfingers 7.12502
lthumb 17.4398 83.4951
rfemur -7.2376 3.3802 22.5859
rtibia 32.5233
rfoot -18.9061 -15.4821
rtoes 11.168
lfemur -4.67379 -11.6314 -19.0654
ltibia 26.1378
lfoot -15.1214 3.56713
ltoes -6.68332
5
root -0.478965 18.3198 49.2738 177.221 0.789422 -179.318
lowerback 16.3281 -1.83193 -4.72372
upperback -0.0804364 -2.62239 4.8301
thorax -8.8232 -0.8225 8.60126
lowerneck -3.04073 -3.00888 -3.52993
upperneck 35.3058 3.60184 -6.62073
head 12.3183 2.16595 -1.13138
rclavicle 2.69353e-014 -8.0309e-014
rhumerus -32.0686 -64.7914 -16.952
rradius 67.2757
rwrist -67.4911
rhand -12.2736 -9.07342
rfingers 7.12502
rthumb 13.7934 -38.5961
lclavicle 2.69353e-014 -8.0309e-014
lhumerus -49.4692 6.62027 77.9111
lradius 49.3978
lwrist 8.5971
lhand -8.63321 53.9362
lfingers 7.12502
lthumb 17.2995 83.1863
rfemur -7.14845 3.40943 22.5867
rtibia 32.6166
rfoot -19.0935 -15.5802
rtoes 11.5305
lfemur -4.57285 -11.6528 -19.1057
ltibia 26.1512
lfoot -15.1611 3.50236
ltoes -6.80795
6
root -0.470458 18.3181 49.2601 177.22 0.763339 -179.323
lowerback 16.3081 -1.80632 -4.64838
upperback 0.0849779 -2.5706 4.78057
thorax -8.64403 -0.812266 8.47809
lowerneck -3.42079 -2.99123 -3.40761
upperneck 35.2699 3.50281 -6.49882
head 12.3719 2.11473 -1.11961
rclavicle -1.51076e-014 3.73715e-014
rhumerus -32.4031 -64.8747 -16.6683
rradius 67.576
rwrist -66.9779
rhand -11.952 -8.77163
rfingers 7.12502
rthumb 14.1033 -38.273
lclavicle -1.51076e-014 3.73715e-014
lhumerus -49.0878 6.44094 77.944
lradius 49.4773
lwrist 8.88526
lhand -8.75931 53.8576
lfingers 7.12502
lthumb 17.1781 83.1183
rfemur -7.13644 3.44211 22.6243
rtibia 32.6911
rfoot -19.1918 -15.5938
rtoes 11.6225
lfemur -4.52962 -11.6625 -19.0944
ltibia 26.1528
lfoot -15.1788 3.52962
ltoes -7.10432
7
root -0.46146 18.3158 49.2438 177.253 0.784885 -179.385
lowerback 16.3059 -1.69793 -4.5414
upperback 0.371132 -2.39986 4.69643
thorax -8.36569 -0.750986 8.26609
lowerneck -4.40942 -3.03586 -3.34148
upperneck 35.3567 3.28933 -6.32216
head 12.6013 1.97333 -1.09182
rclavicle 5.96354e-016 1.11319e-014
rhumerus -32.6513 -65.2627 -16.464
rradius 67.8955
rwrist -66.097
rhand -11.5793 -8.60254
rfingers 7.12502
rthumb 14.4624 -38.0786
lclavicle 5.96354e-016 1.11319e-014
lhumerus -48.4482 6.22188 78.0219
lradius 49.6599
lwrist 8.9455
lhand -8.69904 54.1203
lfingers 7.12502
lthumb 17.2361 83.3759
rfemur -7.10888 3.52551 22.6012
rtibia 32.704
rfoot -19.2812 -15.6432
rtoes 12.1041
lfemur -4.50815 -11.557 -19.1351
ltibia 26.1541
lfoot -15.2141 3.53617
ltoes -8.03493
8
root -0.448431 18.3139 49.229 177.205 0.63826 -179.383
lowerback 16.4839 -1.67477 -4.32389
upperback 0.693422 -2.32197 4.5753
thorax -8.13838 -0.733828 7.97905
lowerneck -5.60374 -3.02108 -3.312
upperneck 35.4405 3.06863 -5.9536
head 12.8708 1.82885 -0.987707
rclavicle -3.50855e-014 8.18993e-014
rhumerus -32.9795 -65.7298 -16.2643
rradius 68.2089
rwrist -65.3578
rhand -11.3117 -8.62555
rfingers 7.12502
rthumb 14.7202 -38.0829
lclavicle -3.50855e-014 8.18993e-014
lhumerus -47.7253 5.9801 77.998
lradius 49.812
lwrist 9.07037
lhand -8.65901 54.0095
lfingers 7.12502
lthumb 17.2746 83.2617
rfemur -6.96569 3.48526 22.6687
rtibia 32.6775
rfoot -19.4034 -15.7016
rtoes 12.4117
lfemur -4.43701 -11.5932 -19.0954
ltibia 26.1837
lfoot -15.3185 3.4115
ltoes -8.49548
9
root -0.436811 18.3199 49.2143 177.328 0.453608 -179.374
lowerback 16.6003 -1.84967 -4.4704
upperback 0.19273 -2.59933 4.6999
thorax -8.69574 -0.831703 8.30313
lowerneck -4.07147 -2.95683 -3.49652
upperneck 35.0335 3.27127 -6.16317
head 12.387 1.9649 -1.00707
rclavicle -1.88845e-015 1.11319e-014
rhumerus -32.9792 -64.3428 -16.1319
rradius 68.5597
rwrist -65.1855
rhand -10.7012 -8.80844
rfingers 7.12502
rthumb 15.3084 -38.2219
lclavicle -1.88845e-015 1.11319e-014
lhumerus -48.979 6.24275 77.8513
lradius 50.1765
lwrist 9.05868
lhand -8.56974 53.712
lfingers 7.12502
lthumb 17.3606 82.9567
rfemur -7.01039 3.49229 22.7387
rtibia 32.6409
rfoot -19.462 -15.9294
rtoes 11.8431
lfemur -4.59426 -11.7644 -19.0235
ltibia 26.218
lfoot -15.4031 3.35603
ltoes -8.46379
10
root -0.425001 18.3176 49.1936 177.336 0.390113 -179.323
lowerback 16.7193 -1.83463 -4.38849
upperback 0.273778 -2.55608 4.70796
thorax -8.6837 -0.812497 8.25762
lowerneck -4.56305 -3.00194 -3.38966
upperneck 35.1701 3.18453 -6.15738
head 12.5441 1.91094 -1.03509
rclavicle 5.26779e-015 -1.59028e-015
rhumerus -33.5012 -64.3675 -15.5247
rradius 68.9298
rwrist -64.9174
rhand -10.2283 -8.76206
rfingers 7.12502
rthumb 15.7638 -38.1401
lclavicle 5.26779e-015 -1.59028e-015
lhumerus -48.6664 6.27078 77.8142
lradius 50.1254
lwrist 9.01465
lhand -8.49837 53.5212
lfingers 7.12502
lthumb 17.4293 82.7598
rfemur -6.93049 3.46157 22.8485
rtibia 32.6441
rfoot -19.5064 -15.9805
rtoes 11.5501
lfemur -4.57983 -11.8182 -18.9351
ltibia 26.3035
lfoot -15.4414 3.288
ltoes -7.62994
11
root -0.413957 18.3116 49.1721 177.358 0.435382 -179.279
lowerback 16.4408 -1.74852 -4.2147
upperback 0.630015 -2.3894 4.65134
thorax -8.17382 -0.765156 8.01543
lowerneck -5.2519 -3.03363 -3.17445
upperneck 35.0501 2.96358 -6.11711
head 12.6252 1.78317 -1.0893
rclavicle -3.85642e-014 2.38542e-014
rhumerus -34.1858 -64.9389 -14.8375
rradius 69.3328
rwrist -64.529
rhand -9.65048 -8.41709
rfingers 7.12502
rthumb 16.3202 -37.7504
lclavicle -3.85642e-014 2.38542e-014
lhumerus -47.8564 6.22931 77.825
lradius 50.0517
lwrist 8.95175
lhand -8.48093 53.8083
lfingers 7.12502
lthumb 17.446 83.0455
rfemur -6.87537 3.48282 22.9453
rtibia 32.6495
rfoot -19.6411 -15.9653
rtoes 11.6551
lfemur -4.5584 -11.8231 -18.86
ltibia 26.397
lfoot -15.4989 3.29568
ltoes -7.20465
12
root -0.403557 18.3013 49.1492 177.367 0.41887 -179.296
lowerback 16.0673 -1.83146 -4.27197
upperback 0.645527 -2.50456 4.67786
thorax -7.92527 -0.832486 8.07794
lowerneck -4.60464 -2.97546 -3.30974
upperneck 34.7672 3.00261 -6.05237
head 12.3689 1.81796 -1.03476
rclavicle 1.51076e-014 -4.13472e-014
rhumerus -33.9273 -64.321 -15.1585
rradius 69.7429
rwrist -63.8238
rhand -9.41924 -7.78136
rfingers 7.12502
rthumb 16.5428 -37.0962
lclavicle 1.51076e-014 -4.13472e-014
lhumerus -48.171 6.36351 77.7133
lradius 50.2346
lwrist 9.06662
lhand -8.57082 53.7331
lfingers 7.12502
lthumb 17.3595 82.9779
rfemur -6.82815 3.45001 22.9707
rtibia 32.7195
rfoot -19.8131 -15.927
rtoes 11.718
lfemur -4.54652 -11.7963 -18.8467
ltibia 26.5154
lfoot -15.6635 3.23435
ltoes -7.15916
13
root -0.38726 18.2968 49.1346 177.22 0.206979 -179.279
lowerback 16.4903 -1.66098 -3.84951
upperback 1.34113 -2.17516 4.44895
thorax -7.48136 -0.702831 7.49439
lowerneck -7.32523 -3.12108 -2.7904
upperneck 35.2697 2.49787 -5.80671
head 13.1348 1.51769 -1.11148
rclavicle 2.68359e-015 -4.77083e-015
rhumerus -35.1417 -65.758 -14.1657
rradius 70.1643
rwrist -62.6899
rhand -9.52493 -6.95184
rfingers 7.12502
rthumb 16.4411 -36.2751
lclavicle 2.68359e-015 -4.77083e-015
lhumerus -46.3379 5.65157 77.8995
lradius 50.1495
lwrist 9.33307
lhand -8.80369 53.4803
lfingers 7.12502
lthumb 17.1354 82.7447
rfemur -6.60381 3.43639 23.0722
rtibia 32.7779
rfoot -20.1454 -16.025
rtoes 12.22
lfemur -4.41153 -11.9605 -18.8245
ltibia 26.6344
lfoot -15.8363 3.20576
ltoes -7.76722
